<svg xmlns="http://www.w3.org/2000/svg" viewBox="0 0 429.27 158.71"><defs><style>.a{fill:#28367b;}.b{fill:#eb5a25;}.c{fill:#46bee0;}.d{fill:#393938;}</style></defs><title>Imagotipo horizontal color</title><path class="a" d="M56.56,56.69a24.87,24.87,0,0,1-7-6.76,11.28,11.28,0,0,1-.76-10.65c1.47-3.6,4.88-8.12,7.93-11.43a151,151,0,0,0-27.27-9c-2.44-.55-5.57-1.09-8.16-.4s-4.25,2.57-5,5.72c-1,4.29-.63,11.75,0,16.3A54.25,54.25,0,0,0,22,55.3c4.45,8.1,11.16,16.48,20,24.92A156.24,156.24,0,0,0,81.76,108.4c4.12,2,8.81,3.69,12.39,1.36,2.78-1.82,5.42-7.88,5-14.89-.09-1.68-.29-3.42-.48-5.1-.44-4-.89-8-.2-12.06-1.84-.55-3.62-1.12-5.23-1.7A158.2,158.2,0,0,1,56.56,56.69Z"/><path class="a" d="M52.42,41.36a5.77,5.77,0,0,0,.39,5.75,20.85,20.85,0,0,0,5.77,5.48A154.44,154.44,0,0,0,94.41,71.45c1.61.59,3.39,1.16,5.23,1.71,0-.11.07-.23.1-.34a24.27,24.27,0,0,0,1.4-6.93c0-6.11-4.61-11.21-8.09-14.51a110,110,0,0,0-9.12-7.75A167.3,167.3,0,0,0,67.32,33c-2.06-1.11-4.17-2.16-6.31-3.18l-.19.15C57.76,33,53.8,38,52.42,41.36Z"/><path class="b" d="M126.22,77.84l-2.78-.12a87.06,87.06,0,0,1-10.89-1.31c-3.58-.73-8.42-1.91-12.91-3.25a37.66,37.66,0,0,0-1.15,4.51v0c4.66,1.4,9.7,2.64,13.43,3.4a91.53,91.53,0,0,0,11.35,1.36c.45,0,2.48.12,3,.13Z"/><path class="b" d="M158.28,36.22c-1.69-5.5-6.65-8.22-11.29-10.15A138.26,138.26,0,0,0,100.94,15.9c-11.49-.57-21.38.49-29.4,3.16a40.4,40.4,0,0,0-13.06,7l-.14.13c-.5.5-1,1.05-1.58,1.64q2.15.93,4.25,1.94a36.78,36.78,0,0,1,11.6-6.15c7.62-2.54,17.09-3.54,28.16-3a135,135,0,0,1,44.91,9.91c3.75,1.57,7.74,3.65,8.86,7.29h0c.74,2.44-.22,8.18-4,12.64-1,1.13-2,2.27-3.09,3.36A57.79,57.79,0,0,0,143,59v8.56c.23-.62.47-1.22.74-1.79,1.52-3.23,4-5.82,6.4-8.32,1.09-1.15,2.22-2.33,3.27-3.57C158.29,48,159.57,40.42,158.28,36.22Z"/><path class="c" d="M99.64,73.16C97.8,72.61,96,72,94.41,71.45A154.44,154.44,0,0,1,58.58,52.59a20.85,20.85,0,0,1-5.77-5.48,5.77,5.77,0,0,1-.39-5.75C53.8,38,57.76,33,60.82,29.94l.19-.15q-2.1-1-4.25-1.94c-3,3.31-6.46,7.83-7.93,11.43a11.28,11.28,0,0,0,.76,10.65,24.87,24.87,0,0,0,7,6.76A158.2,158.2,0,0,0,93.25,76c1.61.58,3.39,1.15,5.23,1.7,0,0,0,0,0,0A37.66,37.66,0,0,1,99.64,73.16Z"/><path class="d" d="M34.32,142.42a4.43,4.43,0,0,1-1.86-1.51,3.93,3.93,0,0,1-.72-2.16h1.67a3.1,3.1,0,0,0,1,2,3.64,3.64,0,0,0,2.63.87,3.71,3.71,0,0,0,2.54-.82,2.66,2.66,0,0,0,.93-2.08A2.42,2.42,0,0,0,40,137.1a3.14,3.14,0,0,0-1.28-.93,20.8,20.8,0,0,0-2.12-.66,17.48,17.48,0,0,1-2.49-.83,4,4,0,0,1-1.58-1.26,3.76,3.76,0,0,1-.65-2.32,3.86,3.86,0,0,1,.63-2.17,4.19,4.19,0,0,1,1.78-1.5,6.09,6.09,0,0,1,2.63-.54A5.49,5.49,0,0,1,40.44,128,4,4,0,0,1,42,130.72H40.27A2.79,2.79,0,0,0,39.21,129a4.15,4.15,0,0,0-4.79,0,2.49,2.49,0,0,0-.94,2.06,2.37,2.37,0,0,0,.51,1.59,3.3,3.3,0,0,0,1.3.93,19.76,19.76,0,0,0,2.1.67,21.3,21.3,0,0,1,2.48.84,4,4,0,0,1,1.59,1.28,3.64,3.64,0,0,1,.66,2.29,4,4,0,0,1-.59,2.09,4.27,4.27,0,0,1-1.73,1.6,5.76,5.76,0,0,1-2.75.61A6.52,6.52,0,0,1,34.32,142.42Z"/><path class="d" d="M47.47,127.07V142.8H45.9V127.07Z"/><path class="d" d="M53.83,142.42A4.43,4.43,0,0,1,52,140.91a3.93,3.93,0,0,1-.72-2.16h1.67a3.1,3.1,0,0,0,1,2,4.36,4.36,0,0,0,5.16.05,2.63,2.63,0,0,0,.94-2.08,2.47,2.47,0,0,0-.52-1.63,3.21,3.21,0,0,0-1.28-.93,20.8,20.8,0,0,0-2.12-.66,18.13,18.13,0,0,1-2.5-.83A4,4,0,0,1,52,133.42a3.7,3.7,0,0,1-.65-2.32,3.86,3.86,0,0,1,.63-2.17,4.22,4.22,0,0,1,1.77-1.5,6.16,6.16,0,0,1,2.64-.54A5.49,5.49,0,0,1,60,128a4,4,0,0,1,1.54,2.76H59.78A2.83,2.83,0,0,0,58.72,129a4.15,4.15,0,0,0-4.79,0,2.49,2.49,0,0,0-1,2.06,2.38,2.38,0,0,0,.52,1.59,3.3,3.3,0,0,0,1.3.93,18.35,18.35,0,0,0,2.1.67,20.42,20.42,0,0,1,2.47.84,4,4,0,0,1,1.6,1.28,3.64,3.64,0,0,1,.65,2.29,4,4,0,0,1-.58,2.09,4.27,4.27,0,0,1-1.73,1.6,5.76,5.76,0,0,1-2.75.61A6.52,6.52,0,0,1,53.83,142.42Z"/><path class="d" d="M74.61,127.07v1.31H70.24V142.8H68.67V128.38H64.28v-1.31Z"/><path class="d" d="M79.42,128.36v5.87h6v1.3h-6v6h6.64v1.3H77.85V127.05h8.21v1.31Z"/><path class="d" d="M105.28,127.28V142.8H103.7V130.4l-5.54,12.4H97l-5.54-12.35V142.8H89.91V127.28h1.66l6,13.45,6-13.45Z"/><path class="d" d="M118.71,139.07h-7.16l-1.37,3.73h-1.67l5.74-15.52H116l5.72,15.52h-1.67Zm-.47-1.31-3.11-8.5-3.1,8.5Z"/><path class="d" d="M133.49,127.07V142.8h-1.58V127.07Z"/><path class="d" d="M149.67,142.8h-1.58l-8.71-13.23V142.8h-1.57V127.07h1.57l8.71,13.21V127.07h1.58Z"/><path class="d" d="M154.28,130.77a7.3,7.3,0,0,1,2.77-2.85,7.54,7.54,0,0,1,3.91-1,8,8,0,0,1,4.51,1.25,7.13,7.13,0,0,1,2.74,3.52h-1.85a5.37,5.37,0,0,0-2.06-2.49,6,6,0,0,0-3.34-.9,6,6,0,0,0-3.11.81,5.62,5.62,0,0,0-2.18,2.32,7.65,7.65,0,0,0-.78,3.53,7.56,7.56,0,0,0,.78,3.51,5.66,5.66,0,0,0,2.18,2.31,6,6,0,0,0,3.11.81,6,6,0,0,0,3.34-.89,5.3,5.3,0,0,0,2.06-2.46h1.85a7.06,7.06,0,0,1-2.75,3.49,8.07,8.07,0,0,1-4.5,1.24,7.64,7.64,0,0,1-3.91-1,7.34,7.34,0,0,1-2.77-2.84,9,9,0,0,1,0-8.3Z"/><path class="d" d="M173.65,128.36v5.87h6v1.3h-6v6h6.64v1.3h-8.21V127.05h8.21v1.31Z"/><path class="d" d="M196,142.8h-1.57l-8.71-13.23V142.8h-1.57V127.07h1.57l8.71,13.21V127.07H196Z"/><path class="d" d="M209.52,127.07v1.31h-4.37V142.8h-1.57V128.38h-4.39v-1.31Z"/><path class="d" d="M214.33,127.07V142.8h-1.57V127.07Z"/><path class="d" d="M231.12,127.07l-6,15.73h-1.8l-6-15.73h1.71l5.15,14,5.2-14Z"/><path class="d" d="M237.33,141.93a7.4,7.4,0,0,1-2.81-2.85,9,9,0,0,1,0-8.31,7.4,7.4,0,0,1,2.81-2.85,8.17,8.17,0,0,1,7.94,0,7.35,7.35,0,0,1,2.79,2.85,9.05,9.05,0,0,1,0,8.31,7.35,7.35,0,0,1-2.79,2.85,8.17,8.17,0,0,1-7.94,0Zm7.11-1.15a5.76,5.76,0,0,0,2.2-2.33,7.4,7.4,0,0,0,.81-3.52,7.28,7.28,0,0,0-.81-3.51,5.73,5.73,0,0,0-2.2-2.32,6.53,6.53,0,0,0-6.3,0,5.75,5.75,0,0,0-2.21,2.32,7.28,7.28,0,0,0-.81,3.51,7.4,7.4,0,0,0,.81,3.52,5.78,5.78,0,0,0,2.21,2.33,6.53,6.53,0,0,0,6.3,0Z"/><path class="d" d="M268,142.8l-3.89-6.57h-2.9v6.57H259.6V127.07h4.73a5.69,5.69,0,0,1,4,1.26,4.3,4.3,0,0,1,1.36,3.31,4.47,4.47,0,0,1-1,2.91,4.63,4.63,0,0,1-2.89,1.57l4.05,6.68ZM261.18,135h3.17a3.87,3.87,0,0,0,2.78-.9,3.19,3.19,0,0,0,.93-2.41,3.15,3.15,0,0,0-.9-2.4,4,4,0,0,0-2.83-.84h-3.15Z"/><path class="d" d="M275.12,128.36v5.87h6v1.3h-6v6h6.64v1.3h-8.21V127.05h8.21v1.31Z"/><path class="d" d="M287.65,142.42a4.43,4.43,0,0,1-1.86-1.51,3.93,3.93,0,0,1-.72-2.16h1.66a3.16,3.16,0,0,0,1,2,3.63,3.63,0,0,0,2.63.87,3.69,3.69,0,0,0,2.53-.82,2.66,2.66,0,0,0,.93-2.08,2.47,2.47,0,0,0-.51-1.63,3.24,3.24,0,0,0-1.29-.93,20.48,20.48,0,0,0-2.11-.66,18.13,18.13,0,0,1-2.5-.83,4,4,0,0,1-1.57-1.26,3.7,3.7,0,0,1-.66-2.32,3.86,3.86,0,0,1,.63-2.17,4.25,4.25,0,0,1,1.78-1.5,6.12,6.12,0,0,1,2.63-.54,5.52,5.52,0,0,1,3.53,1.07,4,4,0,0,1,1.54,2.76H293.6a2.83,2.83,0,0,0-1.06-1.72,4.15,4.15,0,0,0-4.79,0,2.49,2.49,0,0,0-.95,2.06,2.33,2.33,0,0,0,.52,1.59,3.27,3.27,0,0,0,1.29.93,19.31,19.31,0,0,0,2.11.67,21,21,0,0,1,2.47.84,4.12,4.12,0,0,1,1.6,1.28,3.71,3.71,0,0,1,.65,2.29,4,4,0,0,1-.58,2.09,4.23,4.23,0,0,1-1.74,1.6,5.71,5.71,0,0,1-2.74.61A6.46,6.46,0,0,1,287.65,142.42Z"/><path class="d" d="M308,134.86a5.66,5.66,0,0,1-4,1.24H300.8v6.7h-1.58V127.07H304a5.67,5.67,0,0,1,4,1.24,4.28,4.28,0,0,1,1.34,3.29A4.24,4.24,0,0,1,308,134.86Zm-.29-3.26a3.08,3.08,0,0,0-.88-2.39,4,4,0,0,0-2.81-.81H300.8v6.35H304Q307.66,134.75,307.66,131.6Z"/><path class="d" d="M314.23,127.07V142.8h-1.58V127.07Z"/><path class="d" d="M326.92,142.8,323,136.23h-2.91v6.57h-1.57V127.07h4.72a5.7,5.7,0,0,1,4,1.26,4.33,4.33,0,0,1,1.36,3.31,4.47,4.47,0,0,1-1,2.91,4.66,4.66,0,0,1-2.89,1.57l4.05,6.68Zm-6.8-7.85h3.18a3.87,3.87,0,0,0,2.78-.9,3.19,3.19,0,0,0,.93-2.41,3.15,3.15,0,0,0-.9-2.4,4.07,4.07,0,0,0-2.84-.84h-3.15Z"/><path class="d" d="M341.61,139.07h-7.15l-1.38,3.73h-1.66l5.74-15.52h1.77l5.72,15.52H343Zm-.47-1.31-3.11-8.5-3.1,8.5Z"/><path class="d" d="M357.11,127.07v1.31h-4.36V142.8h-1.58V128.38h-4.38v-1.31Z"/><path class="d" d="M363.46,141.93a7.31,7.31,0,0,1-2.8-2.85,8.9,8.9,0,0,1,0-8.31,7.31,7.31,0,0,1,2.8-2.85,8.17,8.17,0,0,1,7.94,0,7.22,7.22,0,0,1,2.79,2.85,9.05,9.05,0,0,1,0,8.31,7.22,7.22,0,0,1-2.79,2.85,8.17,8.17,0,0,1-7.94,0Zm7.11-1.15a5.76,5.76,0,0,0,2.2-2.33,7.4,7.4,0,0,0,.81-3.52,7.28,7.28,0,0,0-.81-3.51,5.73,5.73,0,0,0-2.2-2.32,6.53,6.53,0,0,0-6.3,0,5.75,5.75,0,0,0-2.21,2.32,7.28,7.28,0,0,0-.81,3.51,7.4,7.4,0,0,0,.81,3.52,5.78,5.78,0,0,0,2.21,2.33,6.53,6.53,0,0,0,6.3,0Z"/><path class="d" d="M387.2,142.8l-3.9-6.57h-2.9v6.57h-1.57V127.07h4.72a5.65,5.65,0,0,1,4,1.26,4.31,4.31,0,0,1,1.37,3.31,4.47,4.47,0,0,1-1,2.91,4.66,4.66,0,0,1-2.89,1.57l4,6.68ZM380.4,135h3.17a3.86,3.86,0,0,0,2.78-.9,3.2,3.2,0,0,0,.94-2.41,3.15,3.15,0,0,0-.9-2.4,4.07,4.07,0,0,0-2.84-.84H380.4Z"/><path class="d" d="M394.35,127.07V142.8h-1.57V127.07Z"/><path class="d" d="M401.78,141.93a7.4,7.4,0,0,1-2.81-2.85,9,9,0,0,1,0-8.31,7.4,7.4,0,0,1,2.81-2.85,8.17,8.17,0,0,1,7.94,0,7.35,7.35,0,0,1,2.79,2.85,9.05,9.05,0,0,1,0,8.31,7.35,7.35,0,0,1-2.79,2.85,8.17,8.17,0,0,1-7.94,0Zm7.1-1.15a5.72,5.72,0,0,0,2.21-2.33,7.4,7.4,0,0,0,.81-3.52,7.28,7.28,0,0,0-.81-3.51,5.69,5.69,0,0,0-2.21-2.32,6.09,6.09,0,0,0-3.14-.81,6.19,6.19,0,0,0-3.16.81,5.8,5.8,0,0,0-2.2,2.32,7.28,7.28,0,0,0-.81,3.51,7.4,7.4,0,0,0,.81,3.52,5.83,5.83,0,0,0,2.2,2.33,6.19,6.19,0,0,0,3.16.81A6.09,6.09,0,0,0,408.88,140.78Z"/><path class="a" d="M175.08,47.53V82.15q0,9.88-4.85,15.06T157,102.39q-8.2,0-12.94-5t-4.73-14.32V47.53H128.89V84.45a30,30,0,0,0,3.4,14.83,22.16,22.16,0,0,0,9.3,9.15,28.49,28.49,0,0,0,13.28,3,26,26,0,0,0,11.84-2.7,20.52,20.52,0,0,0,8.37-7.53v9.31h10.51v-63Z"/><path class="a" d="M207.66,59.26V23.65H197.15v86.9h10.51V98.94A24.26,24.26,0,0,0,217,108a28.21,28.21,0,0,0,14.37,3.57,28.78,28.78,0,0,0,26.1-15.76,36,36,0,0,0,3.93-17,35.25,35.25,0,0,0-3.93-17,28.48,28.48,0,0,0-10.74-11.33,29.64,29.64,0,0,0-15.36-4,28.17,28.17,0,0,0-14.2,3.56A24.88,24.88,0,0,0,207.66,59.26Zm44.51,19.68a26,26,0,0,1-2.89,12.59,20.21,20.21,0,0,1-7.79,8.17,21.28,21.28,0,0,1-10.8,2.81A21,21,0,0,1,220,99.7a20.62,20.62,0,0,1-7.85-8.17,25.36,25.36,0,0,1-2.95-12.48,25.16,25.16,0,0,1,2.95-12.36A20.59,20.59,0,0,1,220,58.53a21.06,21.06,0,0,1,10.68-2.82,21.64,21.64,0,0,1,10.8,2.76,19.89,19.89,0,0,1,7.79,8A25.49,25.49,0,0,1,252.17,78.94Z"/><path class="a" d="M268.79,47.6v63H279.3v-63Z"/><path class="a" d="M286.36,79a36.12,36.12,0,0,0,3.93,17.25,28,28,0,0,0,10.91,11.38,31.4,31.4,0,0,0,16,4q11.44,0,19.06-5.81a27.75,27.75,0,0,0,10.16-15.47H335.09a16.27,16.27,0,0,1-6.35,9.2,19.7,19.7,0,0,1-11.55,3.22,18.58,18.58,0,0,1-14.55-6.21Q297.11,90.38,297.1,79t5.54-17.43q5.55-6.15,14.55-6.15a19.52,19.52,0,0,1,11.61,3.33,16.22,16.22,0,0,1,6.29,9.09h11.32a26.63,26.63,0,0,0-10-15.64q-7.56-5.64-19.23-5.64a31.5,31.5,0,0,0-16,4,28.09,28.09,0,0,0-10.91,11.33A35.51,35.51,0,0,0,286.36,79Z"/><path class="a" d="M402.46,47.53V82.15q0,9.88-4.85,15.06t-13.28,5.18q-8.19,0-12.93-5t-4.73-14.32V47.53h-10.4V84.45a30,30,0,0,0,3.41,14.83,22.16,22.16,0,0,0,9.3,9.15,28.45,28.45,0,0,0,13.27,3,26,26,0,0,0,11.84-2.7,20.39,20.39,0,0,0,8.37-7.53v9.31H413v-63Z"/></svg>